STARTFONT 2.1
FONT -Linotype-Palatino-Bold-I-Normal--14-140-72-72-P-77-ISO8859-1
SIZE 14 72 72
FONTBOUNDINGBOX 16 18 -2 -4

STARTPROPERTIES 22
FONTNAME_REGISTRY "-"
FOUNDRY "Linotype"
FAMILY_NAME "Palatino"
WEIGHT_NAME "Bold"
SLANT "I"
SETWIDTH_NAME "Normal"
ADD_STYLE_NAME ""
SPACING "P"
CHARSET_REGISTRY "ISO8859"
CHARSET_ENCODING "1"
PIXEL_SIZE 14
POINT_SIZE 140
RESOLUTION_X 72
RESOLUTION_Y 72
AVERAGE_WIDTH 77
FULL_NAME "Palatino-BoldItalic"
WEIGHT 10
X_HEIGHT 7
QUAD_WIDTH 9
DEFAULT_CHAR 32
FONT_DESCENT 4
FONT_ASCENT 14
ENDPROPERTIES

CHARS 190

STARTCHAR space
ENCODING 32
SWIDTH 250 0
DWIDTH 4 0
BBX 1 1 0 0
BITMAP
00
ENDCHAR

STARTCHAR exclam
ENCODING 33
SWIDTH 333 0
DWIDTH 5 0
BBX 4 10 1 0
BITMAP
30
30
30
60
60
60
40
00
C0
C0
ENDCHAR

STARTCHAR quotedbl
ENCODING 34
SWIDTH 500 0
DWIDTH 7 0
BBX 6 3 0 7
BITMAP
6C
6C
D8
ENDCHAR

STARTCHAR numbersign
ENCODING 35
SWIDTH 500 0
DWIDTH 8 0
BBX 8 10 0 0
BITMAP
1E
1E
1E
7F
3C
3C
FE
78
78
78
ENDCHAR

STARTCHAR dollar
ENCODING 36
SWIDTH 500 0
DWIDTH 7 0
BBX 7 12 0 -1
BITMAP
08
1E
3E
68
78
38
1C
16
16
EC
F8
20
ENDCHAR

STARTCHAR percent
ENCODING 37
SWIDTH 889 0
DWIDTH 12 0
BBX 10 10 1 0
BITMAP
7300
DB00
DE00
DE00
7C00
0F80
1EC0
1EC0
36C0
3380
ENDCHAR

STARTCHAR ampersand
ENCODING 38
SWIDTH 833 0
DWIDTH 12 0
BBX 11 10 1 0
BITMAP
1E00
3440
3060
19C0
6700
CD80
C580
C180
E300
7E00
ENDCHAR

STARTCHAR quoteright
ENCODING 39
SWIDTH 278 0
DWIDTH 4 0
BBX 3 3 1 7
BITMAP
60
60
C0
ENDCHAR

STARTCHAR parenleft
ENCODING 40
SWIDTH 333 0
DWIDTH 5 0
BBX 5 12 0 -2
BITMAP
08
30
60
60
C0
C0
C0
C0
C0
C0
40
20
ENDCHAR

STARTCHAR parenright
ENCODING 41
SWIDTH 333 0
DWIDTH 5 0
BBX 5 12 -1 -2
BITMAP
20
10
18
18
18
18
18
18
30
30
60
80
ENDCHAR

STARTCHAR asterisk
ENCODING 42
SWIDTH 444 0
DWIDTH 6 0
BBX 6 5 1 5
BITMAP
10
F0
7C
70
D8
ENDCHAR

STARTCHAR plus
ENCODING 43
SWIDTH 606 0
DWIDTH 8 0
BBX 7 7 0 1
BITMAP
10
10
10
FE
10
10
10
ENDCHAR

STARTCHAR comma
ENCODING 44
SWIDTH 250 0
DWIDTH 4 0
BBX 3 3 0 -1
BITMAP
60
60
C0
ENDCHAR

STARTCHAR minus
ENCODING 45
SWIDTH 606 0
DWIDTH 8 0
BBX 7 1 0 4
BITMAP
FE
ENDCHAR

STARTCHAR period
ENCODING 46
SWIDTH 250 0
DWIDTH 4 0
BBX 2 2 1 0
BITMAP
C0
C0
ENDCHAR

STARTCHAR slash
ENCODING 47
SWIDTH 315 0
DWIDTH 4 0
BBX 4 10 0 0
BITMAP
10
10
30
20
20
60
40
C0
80
80
ENDCHAR

STARTCHAR zero
ENCODING 48
SWIDTH 500 0
DWIDTH 7 0
BBX 6 10 0 0
BITMAP
38
6C
6C
CC
CC
CC
CC
D8
D8
70
ENDCHAR

STARTCHAR one
ENCODING 49
SWIDTH 500 0
DWIDTH 7 0
BBX 6 10 0 0
BITMAP
18
78
58
18
18
30
30
30
30
FC
ENDCHAR

STARTCHAR two
ENCODING 50
SWIDTH 500 0
DWIDTH 7 0
BBX 6 10 0 0
BITMAP
38
7C
4C
0C
0C
18
30
60
FC
FC
ENDCHAR

STARTCHAR three
ENCODING 51
SWIDTH 500 0
DWIDTH 7 0
BBX 6 10 0 0
BITMAP
3C
5C
0C
18
3C
0C
0C
8C
D8
70
ENDCHAR

STARTCHAR four
ENCODING 52
SWIDTH 500 0
DWIDTH 7 0
BBX 7 10 0 0
BITMAP
0C
1C
2C
4C
58
FE
FE
18
18
7C
ENDCHAR

STARTCHAR five
ENCODING 53
SWIDTH 500 0
DWIDTH 7 0
BBX 7 10 0 0
BITMAP
3E
3C
40
78
5C
0C
0C
CC
D8
70
ENDCHAR

STARTCHAR six
ENCODING 54
SWIDTH 500 0
DWIDTH 7 0
BBX 6 10 0 0
BITMAP
1C
30
60
78
EC
CC
CC
CC
D8
70
ENDCHAR

STARTCHAR seven
ENCODING 55
SWIDTH 500 0
DWIDTH 7 0
BBX 7 10 0 0
BITMAP
7E
7C
04
08
18
30
30
60
60
E0
ENDCHAR

STARTCHAR eight
ENCODING 56
SWIDTH 500 0
DWIDTH 7 0
BBX 6 10 0 0
BITMAP
38
6C
6C
78
30
78
CC
CC
DC
78
ENDCHAR

STARTCHAR nine
ENCODING 57
SWIDTH 500 0
DWIDTH 7 0
BBX 6 10 0 0
BITMAP
38
6C
CC
CC
CC
7C
1C
18
B0
E0
ENDCHAR

STARTCHAR colon
ENCODING 58
SWIDTH 250 0
DWIDTH 4 0
BBX 3 7 1 0
BITMAP
60
60
00
00
00
C0
C0
ENDCHAR

STARTCHAR semicolon
ENCODING 59
SWIDTH 250 0
DWIDTH 4 0
BBX 4 8 0 -1
BITMAP
30
30
00
00
00
60
60
C0
ENDCHAR

STARTCHAR less
ENCODING 60
SWIDTH 606 0
DWIDTH 8 0
BBX 7 7 0 0
BITMAP
06
18
60
80
60
18
06
ENDCHAR

STARTCHAR equal
ENCODING 61
SWIDTH 606 0
DWIDTH 8 0
BBX 7 4 0 3
BITMAP
FE
00
00
FE
ENDCHAR

STARTCHAR greater
ENCODING 62
SWIDTH 606 0
DWIDTH 8 0
BBX 7 7 0 0
BITMAP
C0
30
0C
02
0C
30
C0
ENDCHAR

STARTCHAR question
ENCODING 63
SWIDTH 444 0
DWIDTH 6 0
BBX 5 10 1 0
BITMAP
70
D8
18
18
30
60
40
00
C0
C0
ENDCHAR

STARTCHAR at
ENCODING 64
SWIDTH 833 0
DWIDTH 12 0
BBX 10 10 1 0
BITMAP
1F00
2080
4F40
9A40
B640
B680
9B00
C000
6180
3E00
ENDCHAR

STARTCHAR A
ENCODING 65
SWIDTH 722 0
DWIDTH 11 0
BBX 10 10 0 0
BITMAP
0600
0600
0E00
0B00
1300
1F00
2300
2180
4180
E3C0
ENDCHAR

STARTCHAR B
ENCODING 66
SWIDTH 667 0
DWIDTH 9 0
BBX 8 10 0 0
BITMAP
7E
33
33
36
3E
63
63
63
66
FC
ENDCHAR

STARTCHAR C
ENCODING 67
SWIDTH 685 0
DWIDTH 10 0
BBX 9 10 0 0
BITMAP
1F80
3180
6000
C000
C000
C000
C000
C000
E180
7F00
ENDCHAR

STARTCHAR D
ENCODING 68
SWIDTH 778 0
DWIDTH 11 0
BBX 10 10 0 0
BITMAP
7F00
3180
30C0
30C0
30C0
60C0
60C0
6180
6300
FE00
ENDCHAR

STARTCHAR E
ENCODING 69
SWIDTH 611 0
DWIDTH 8 0
BBX 8 10 0 0
BITMAP
7F
31
30
30
3E
60
60
60
62
FE
ENDCHAR

STARTCHAR F
ENCODING 70
SWIDTH 556 0
DWIDTH 8 0
BBX 8 10 0 0
BITMAP
7F
31
30
30
3E
60
60
60
60
F0
ENDCHAR

STARTCHAR G
ENCODING 71
SWIDTH 778 0
DWIDTH 10 0
BBX 9 10 0 0
BITMAP
1F80
3180
6000
C000
C000
C000
C780
C300
E300
7E00
ENDCHAR

STARTCHAR H
ENCODING 72
SWIDTH 778 0
DWIDTH 11 0
BBX 11 10 0 0
BITMAP
79E0
30C0
30C0
30C0
3F80
6180
6180
6180
6180
F3C0
ENDCHAR

STARTCHAR I
ENCODING 73
SWIDTH 389 0
DWIDTH 5 0
BBX 5 10 0 0
BITMAP
78
30
30
30
30
60
60
60
60
F0
ENDCHAR

STARTCHAR J
ENCODING 74
SWIDTH 389 0
DWIDTH 5 0
BBX 6 13 -2 -3
BITMAP
3C
18
18
18
18
18
30
30
30
30
30
20
C0
ENDCHAR

STARTCHAR K
ENCODING 75
SWIDTH 722 0
DWIDTH 10 0
BBX 10 10 0 0
BITMAP
79C0
3300
3600
3C00
3800
7C00
6E00
6700
6380
F1C0
ENDCHAR

STARTCHAR L
ENCODING 76
SWIDTH 611 0
DWIDTH 9 0
BBX 8 10 0 0
BITMAP
78
30
30
30
30
60
60
60
61
FF
ENDCHAR

STARTCHAR M
ENCODING 77
SWIDTH 944 0
DWIDTH 13 0
BBX 13 10 0 0
BITMAP
3838
1830
1870
1C70
2CB0
2D60
2F60
4660
4660
E4F0
ENDCHAR

STARTCHAR N
ENCODING 78
SWIDTH 778 0
DWIDTH 11 0
BBX 11 10 0 0
BITMAP
70E0
3840
3840
2C40
2E80
2680
4380
4380
4180
E080
ENDCHAR

STARTCHAR O
ENCODING 79
SWIDTH 833 0
DWIDTH 11 0
BBX 10 10 0 0
BITMAP
1F80
31C0
60C0
C0C0
C0C0
C0C0
C0C0
C180
E300
7E00
ENDCHAR

STARTCHAR P
ENCODING 80
SWIDTH 667 0
DWIDTH 9 0
BBX 9 10 0 0
BITMAP
7F00
3180
3180
3180
3300
6E00
6000
6000
6000
F000
ENDCHAR

STARTCHAR Q
ENCODING 81
SWIDTH 833 0
DWIDTH 11 0
BBX 10 13 0 -3
BITMAP
1F00
3380
61C0
C0C0
C0C0
C0C0
C0C0
C180
E300
7E00
3800
4E40
0780
ENDCHAR

STARTCHAR R
ENCODING 82
SWIDTH 722 0
DWIDTH 10 0
BBX 10 10 0 0
BITMAP
7F00
3180
3180
3300
3C00
6C00
6600
6300
6380
F1C0
ENDCHAR

STARTCHAR S
ENCODING 83
SWIDTH 556 0
DWIDTH 8 0
BBX 7 10 0 0
BITMAP
1E
36
60
60
78
1E
06
06
CC
F8
ENDCHAR

STARTCHAR T
ENCODING 84
SWIDTH 611 0
DWIDTH 8 0
BBX 8 10 0 0
BITMAP
FF
99
18
18
18
30
30
30
30
78
ENDCHAR

STARTCHAR U
ENCODING 85
SWIDTH 778 0
DWIDTH 11 0
BBX 11 10 0 0
BITMAP
E1E0
60C0
60C0
60C0
60C0
C180
C180
C380
C580
79C0
ENDCHAR

STARTCHAR V
ENCODING 86
SWIDTH 667 0
DWIDTH 10 0
BBX 10 10 0 0
BITMAP
F1C0
6080
6100
3100
3200
3200
3400
1C00
1800
1800
ENDCHAR

STARTCHAR W
ENCODING 87
SWIDTH 1000 0
DWIDTH 14 0
BBX 14 10 0 0
BITMAP
F11C
6308
6308
6790
6590
35A0
39E0
30C0
30C0
30C0
ENDCHAR

STARTCHAR X
ENCODING 88
SWIDTH 722 0
DWIDTH 10 0
BBX 10 10 0 0
BITMAP
3DC0
1880
0D00
0E00
0600
0E00
1300
3300
6180
F3C0
ENDCHAR

STARTCHAR Y
ENCODING 89
SWIDTH 611 0
DWIDTH 9 0
BBX 9 10 0 0
BITMAP
E180
6300
3600
3400
1800
1800
1000
3000
3000
7800
ENDCHAR

STARTCHAR Z
ENCODING 90
SWIDTH 667 0
DWIDTH 9 0
BBX 8 10 0 0
BITMAP
7F
46
06
0C
18
18
30
60
61
FF
ENDCHAR

STARTCHAR bracketleft
ENCODING 91
SWIDTH 333 0
DWIDTH 5 0
BBX 5 12 0 -2
BITMAP
38
30
30
30
60
60
60
60
C0
C0
C0
E0
ENDCHAR

STARTCHAR backslash
ENCODING 92
SWIDTH 606 0
DWIDTH 8 0
BBX 6 10 1 0
BITMAP
80
C0
40
60
20
30
10
18
08
0C
ENDCHAR

STARTCHAR bracketright
ENCODING 93
SWIDTH 333 0
DWIDTH 5 0
BBX 5 12 0 -2
BITMAP
38
18
18
18
30
30
30
30
60
60
60
E0
ENDCHAR

STARTCHAR asciicircum
ENCODING 94
SWIDTH 606 0
DWIDTH 8 0
BBX 6 6 1 4
BITMAP
30
30
78
78
CC
CC
ENDCHAR

STARTCHAR underscore
ENCODING 95
SWIDTH 500 0
DWIDTH 7 0
BBX 7 1 0 -2
BITMAP
FE
ENDCHAR

STARTCHAR quoteleft
ENCODING 96
SWIDTH 278 0
DWIDTH 4 0
BBX 3 3 1 7
BITMAP
60
C0
C0
ENDCHAR

STARTCHAR a
ENCODING 97
SWIDTH 556 0
DWIDTH 8 0
BBX 8 7 0 0
BITMAP
3E
66
66
CC
DC
ED
CE
ENDCHAR

STARTCHAR b
ENCODING 98
SWIDTH 537 0
DWIDTH 8 0
BBX 7 10 0 0
BITMAP
70
30
30
3E
76
66
66
CC
D8
F0
ENDCHAR

STARTCHAR c
ENCODING 99
SWIDTH 444 0
DWIDTH 6 0
BBX 6 7 0 0
BITMAP
3C
64
C0
C0
C0
CC
78
ENDCHAR

STARTCHAR d
ENCODING 100
SWIDTH 556 0
DWIDTH 8 0
BBX 8 10 0 0
BITMAP
07
03
03
3E
66
66
C6
CC
DD
EE
ENDCHAR

STARTCHAR e
ENCODING 101
SWIDTH 444 0
DWIDTH 6 0
BBX 6 7 0 0
BITMAP
3C
6C
C8
F0
C0
CC
78
ENDCHAR

STARTCHAR f
ENCODING 102
SWIDTH 333 0
DWIDTH 5 0
BBX 8 14 -2 -4
BITMAP
07
0C
0C
3E
18
18
18
18
30
30
30
30
60
C0
ENDCHAR

STARTCHAR g
ENCODING 103
SWIDTH 500 0
DWIDTH 7 0
BBX 8 11 -1 -4
BITMAP
1E
37
66
66
3C
18
38
6C
C6
C6
7C
ENDCHAR

STARTCHAR h
ENCODING 104
SWIDTH 556 0
DWIDTH 8 0
BBX 8 10 0 0
BITMAP
70
30
30
6E
76
66
66
CC
CD
CE
ENDCHAR

STARTCHAR i
ENCODING 105
SWIDTH 333 0
DWIDTH 5 0
BBX 4 10 0 0
BITMAP
30
30
00
60
E0
60
60
C0
D0
E0
ENDCHAR

STARTCHAR j
ENCODING 106
SWIDTH 333 0
DWIDTH 5 0
BBX 6 14 -2 -4
BITMAP
0C
0C
00
18
38
18
18
18
30
30
30
30
60
C0
ENDCHAR

STARTCHAR k
ENCODING 107
SWIDTH 556 0
DWIDTH 8 0
BBX 7 10 0 0
BITMAP
70
30
30
6E
78
70
78
D8
DA
CC
ENDCHAR

STARTCHAR l
ENCODING 108
SWIDTH 333 0
DWIDTH 5 0
BBX 4 10 0 0
BITMAP
70
30
30
60
60
60
C0
C0
D0
E0
ENDCHAR

STARTCHAR m
ENCODING 109
SWIDTH 833 0
DWIDTH 12 0
BBX 12 7 0 0
BITMAP
6EE0
F760
6660
66C0
CCC0
CCD0
CCE0
ENDCHAR

STARTCHAR n
ENCODING 110
SWIDTH 556 0
DWIDTH 8 0
BBX 8 7 0 0
BITMAP
6E
F6
66
66
CC
CD
CE
ENDCHAR

STARTCHAR o
ENCODING 111
SWIDTH 556 0
DWIDTH 7 0
BBX 7 7 0 0
BITMAP
3C
66
66
C6
CC
CC
78
ENDCHAR

STARTCHAR p
ENCODING 112
SWIDTH 556 0
DWIDTH 8 0
BBX 8 11 -1 -4
BITMAP
37
7B
33
33
66
66
7C
60
C0
C0
C0
ENDCHAR

STARTCHAR q
ENCODING 113
SWIDTH 537 0
DWIDTH 8 0
BBX 7 11 0 -4
BITMAP
3E
66
66
CC
DC
EC
CC
0C
18
18
18
ENDCHAR

STARTCHAR r
ENCODING 114
SWIDTH 389 0
DWIDTH 5 0
BBX 5 7 0 0
BITMAP
68
F8
60
60
C0
C0
C0
ENDCHAR

STARTCHAR s
ENCODING 115
SWIDTH 444 0
DWIDTH 6 0
BBX 6 7 0 0
BITMAP
3C
6C
60
30
18
D8
F0
ENDCHAR

STARTCHAR t
ENCODING 116
SWIDTH 389 0
DWIDTH 5 0
BBX 5 9 0 0
BITMAP
30
30
F8
60
60
60
C0
D0
E0
ENDCHAR

STARTCHAR u
ENCODING 117
SWIDTH 556 0
DWIDTH 8 0
BBX 8 7 0 0
BITMAP
66
E6
66
CC
DC
ED
CE
ENDCHAR

STARTCHAR v
ENCODING 118
SWIDTH 556 0
DWIDTH 8 0
BBX 8 7 0 0
BITMAP
FF
B3
33
63
66
64
78
ENDCHAR

STARTCHAR w
ENCODING 119
SWIDTH 833 0
DWIDTH 12 0
BBX 12 7 0 0
BITMAP
F370
B330
3330
6660
6660
6EC0
7380
ENDCHAR

STARTCHAR x
ENCODING 120
SWIDTH 500 0
DWIDTH 7 0
BBX 7 7 0 0
BITMAP
36
7C
58
18
3A
7E
CC
ENDCHAR

STARTCHAR y
ENCODING 121
SWIDTH 556 0
DWIDTH 8 0
BBX 8 11 0 -4
BITMAP
33
73
33
36
66
7E
6C
0C
18
D8
F0
ENDCHAR

STARTCHAR z
ENCODING 122
SWIDTH 500 0
DWIDTH 7 0
BBX 6 7 0 0
BITMAP
34
7C
48
10
24
7C
D8
ENDCHAR

STARTCHAR braceleft
ENCODING 123
SWIDTH 333 0
DWIDTH 5 0
BBX 5 12 0 -2
BITMAP
18
30
30
30
60
C0
60
60
C0
C0
C0
60
ENDCHAR

STARTCHAR bar
ENCODING 124
SWIDTH 606 0
DWIDTH 8 0
BBX 2 10 3 0
BITMAP
C0
C0
C0
C0
C0
C0
C0
C0
C0
C0
ENDCHAR

STARTCHAR braceright
ENCODING 125
SWIDTH 333 0
DWIDTH 5 0
BBX 5 12 0 -2
BITMAP
30
18
18
18
30
30
18
30
60
60
60
C0
ENDCHAR

STARTCHAR asciitilde
ENCODING 126
SWIDTH 606 0
DWIDTH 8 0
BBX 7 2 0 3
BITMAP
76
DC
ENDCHAR

STARTCHAR exclamdown
ENCODING 161
SWIDTH 333 0
DWIDTH 5 0
BBX 4 10 0 -3
BITMAP
30
30
00
20
60
60
60
C0
C0
C0
ENDCHAR

STARTCHAR cent
ENCODING 162
SWIDTH 500 0
DWIDTH 7 0
BBX 6 9 0 -1
BITMAP
08
3C
74
D0
D0
E0
E8
70
20
ENDCHAR

STARTCHAR sterling
ENCODING 163
SWIDTH 500 0
DWIDTH 7 0
BBX 6 10 0 0
BITMAP
1C
34
60
60
F8
60
60
40
F4
9C
ENDCHAR

STARTCHAR currency
ENCODING 164
SWIDTH 500 0
DWIDTH 8 0
BBX 7 7 0 1
BITMAP
BA
7C
C6
C6
C6
7C
BA
ENDCHAR

STARTCHAR yen
ENCODING 165
SWIDTH 500 0
DWIDTH 7 0
BBX 7 10 0 0
BITMAP
C2
64
6C
28
7C
30
F8
60
60
F0
ENDCHAR

STARTCHAR brokenbar
ENCODING 166
SWIDTH 606 0
DWIDTH 8 0
BBX 2 10 3 0
BITMAP
C0
C0
C0
C0
00
C0
C0
C0
C0
C0
ENDCHAR

STARTCHAR section
ENCODING 167
SWIDTH 556 0
DWIDTH 8 0
BBX 7 13 0 -3
BITMAP
1E
32
60
70
3C
4E
C6
E4
78
1C
0C
98
F0
ENDCHAR

STARTCHAR dieresis
ENCODING 168
SWIDTH 333 0
DWIDTH 5 0
BBX 4 2 0 8
BITMAP
90
90
ENDCHAR

STARTCHAR copyright
ENCODING 169
SWIDTH 747 0
DWIDTH 10 0
BBX 10 10 0 0
BITMAP
1E00
2100
4E80
9240
B040
B040
9240
4C80
2100
1E00
ENDCHAR

STARTCHAR ordfeminine
ENCODING 170
SWIDTH 333 0
DWIDTH 5 0
BBX 4 7 0 3
BITMAP
70
D0
B0
A0
F0
00
F0
ENDCHAR

STARTCHAR guillemotleft
ENCODING 171
SWIDTH 500 0
DWIDTH 7 0
BBX 7 5 0 1
BITMAP
36
6C
D8
6C
36
ENDCHAR

STARTCHAR logicalnot
ENCODING 172
SWIDTH 606 0
DWIDTH 8 0
BBX 7 4 0 2
BITMAP
FE
02
02
02
ENDCHAR

STARTCHAR hyphen
ENCODING 173
SWIDTH 389 0
DWIDTH 5 0
BBX 4 1 0 3
BITMAP
F0
ENDCHAR

STARTCHAR registered
ENCODING 174
SWIDTH 747 0
DWIDTH 10 0
BBX 10 10 0 0
BITMAP
1E00
2100
7E80
B340
BE40
B640
B340
7980
2100
1E00
ENDCHAR

STARTCHAR macron
ENCODING 175
SWIDTH 333 0
DWIDTH 5 0
BBX 4 1 0 8
BITMAP
F0
ENDCHAR

STARTCHAR degree
ENCODING 176
SWIDTH 400 0
DWIDTH 7 0
BBX 4 3 2 7
BITMAP
60
90
60
ENDCHAR

STARTCHAR plusminus
ENCODING 177
SWIDTH 606 0
DWIDTH 8 0
BBX 7 8 0 0
BITMAP
10
10
10
FE
10
10
10
FE
ENDCHAR

STARTCHAR twosuperior
ENCODING 178
SWIDTH 300 0
DWIDTH 4 0
BBX 4 6 0 4
BITMAP
70
B0
30
40
F0
F0
ENDCHAR

STARTCHAR threesuperior
ENCODING 179
SWIDTH 300 0
DWIDTH 4 0
BBX 4 6 0 4
BITMAP
70
B0
60
30
B0
E0
ENDCHAR

STARTCHAR acute
ENCODING 180
SWIDTH 333 0
DWIDTH 5 0
BBX 3 3 1 8
BITMAP
20
60
80
ENDCHAR

STARTCHAR mu
ENCODING 181
SWIDTH 556 0
DWIDTH 8 0
BBX 9 10 -1 -3
BITMAP
3300
7300
3300
6600
6E00
7680
6700
8000
8000
8000
ENDCHAR

STARTCHAR paragraph
ENCODING 182
SWIDTH 556 0
DWIDTH 8 0
BBX 7 12 0 -2
BITMAP
7E
D4
D4
D4
D4
74
28
28
28
28
28
7C
ENDCHAR

STARTCHAR periodcentered
ENCODING 183
SWIDTH 250 0
DWIDTH 7 0
BBX 1 2 3 4
BITMAP
80
80
ENDCHAR

STARTCHAR cedilla
ENCODING 184
SWIDTH 333 0
DWIDTH 5 0
BBX 3 3 1 -3
BITMAP
40
20
E0
ENDCHAR

STARTCHAR onesuperior
ENCODING 185
SWIDTH 300 0
DWIDTH 4 0
BBX 4 6 0 4
BITMAP
30
70
30
60
60
F0
ENDCHAR

STARTCHAR ordmasculine
ENCODING 186
SWIDTH 333 0
DWIDTH 5 0
BBX 4 6 0 4
BITMAP
60
B0
D0
60
00
F0
ENDCHAR

STARTCHAR guillemotright
ENCODING 187
SWIDTH 500 0
DWIDTH 7 0
BBX 7 5 0 1
BITMAP
D8
6C
36
6C
D8
ENDCHAR

STARTCHAR onequarter
ENCODING 188
SWIDTH 750 0
DWIDTH 11 0
BBX 10 10 1 0
BITMAP
3180
7300
3200
6600
6CC0
F9C0
1B80
37C0
2180
63C0
ENDCHAR

STARTCHAR onehalf
ENCODING 189
SWIDTH 750 0
DWIDTH 11 0
BBX 10 10 1 0
BITMAP
3180
7300
3200
6600
6DC0
FAC0
18C0
3100
23C0
63C0
ENDCHAR

STARTCHAR threequarters
ENCODING 190
SWIDTH 750 0
DWIDTH 11 0
BBX 10 10 1 0
BITMAP
7180
B300
6200
3600
BCC0
E9C0
1B80
37C0
2180
63C0
ENDCHAR

STARTCHAR questiondown
ENCODING 191
SWIDTH 444 0
DWIDTH 6 0
BBX 5 10 0 -3
BITMAP
18
18
00
10
30
60
C0
C0
D8
78
ENDCHAR

STARTCHAR Agrave
ENCODING 192
SWIDTH 722 0
DWIDTH 11 0
BBX 10 14 0 0
BITMAP
0800
0C00
0200
0000
0600
0600
0E00
0B00
1300
1F00
2380
2180
4180
E3C0
ENDCHAR

STARTCHAR Aacute
ENCODING 193
SWIDTH 722 0
DWIDTH 11 0
BBX 10 14 0 0
BITMAP
0100
0300
0400
0000
0600
0600
0E00
0B00
1300
1F00
2380
2180
4180
E3C0
ENDCHAR

STARTCHAR Acircumflex
ENCODING 194
SWIDTH 722 0
DWIDTH 11 0
BBX 10 14 0 0
BITMAP
0400
0E00
1100
0000
0600
0600
0E00
0B00
1300
1F00
2380
2180
4180
E3C0
ENDCHAR

STARTCHAR Atilde
ENCODING 195
SWIDTH 722 0
DWIDTH 11 0
BBX 10 13 0 0
BITMAP
0D00
1600
0000
0600
0600
0E00
0B00
1300
1F00
2380
2180
4180
E3C0
ENDCHAR

STARTCHAR Adieresis
ENCODING 196
SWIDTH 722 0
DWIDTH 11 0
BBX 10 13 0 0
BITMAP
0900
0900
0000
0600
0600
0E00
0B00
1300
1F00
2380
2180
4180
E3C0
ENDCHAR

STARTCHAR Aring
ENCODING 197
SWIDTH 722 0
DWIDTH 11 0
BBX 10 14 0 0
BITMAP
0600
0900
0600
0000
0600
0600
0E00
0B00
1300
1F00
2380
2180
4180
E3C0
ENDCHAR

STARTCHAR AE
ENCODING 198
SWIDTH 944 0
DWIDTH 13 0
BBX 13 10 0 0
BITMAP
07F8
0388
0580
0980
09F0
1F00
2300
2300
4310
E7F0
ENDCHAR

STARTCHAR Ccedilla
ENCODING 199
SWIDTH 685 0
DWIDTH 10 0
BBX 9 13 0 -3
BITMAP
1F80
3180
6000
C000
C000
C000
C000
C000
E180
7F00
1800
0C00
3800
ENDCHAR

STARTCHAR Egrave
ENCODING 200
SWIDTH 611 0
DWIDTH 8 0
BBX 8 14 0 0
BITMAP
10
18
04
00
7F
31
30
30
3E
60
60
60
62
FE
ENDCHAR

STARTCHAR Eacute
ENCODING 201
SWIDTH 611 0
DWIDTH 8 0
BBX 8 14 0 0
BITMAP
02
06
08
00
7F
31
30
30
3E
60
60
60
62
FE
ENDCHAR

STARTCHAR Ecircumflex
ENCODING 202
SWIDTH 611 0
DWIDTH 8 0
BBX 8 14 0 0
BITMAP
04
0E
11
00
7F
31
30
30
3E
60
60
60
62
FE
ENDCHAR

STARTCHAR Edieresis
ENCODING 203
SWIDTH 611 0
DWIDTH 8 0
BBX 8 13 0 0
BITMAP
12
12
00
7F
31
30
30
3E
60
60
60
62
FE
ENDCHAR

STARTCHAR Igrave
ENCODING 204
SWIDTH 389 0
DWIDTH 5 0
BBX 5 14 0 0
BITMAP
40
60
10
00
78
30
30
30
30
60
60
60
60
F0
ENDCHAR

STARTCHAR Iacute
ENCODING 205
SWIDTH 389 0
DWIDTH 5 0
BBX 5 14 0 0
BITMAP
08
18
20
00
78
30
30
30
30
60
60
60
60
F0
ENDCHAR

STARTCHAR Icircumflex
ENCODING 206
SWIDTH 389 0
DWIDTH 5 0
BBX 6 14 0 0
BITMAP
10
38
44
00
78
30
30
30
30
60
60
60
60
F0
ENDCHAR

STARTCHAR Idieresis
ENCODING 207
SWIDTH 389 0
DWIDTH 5 0
BBX 5 13 0 0
BITMAP
48
48
00
78
30
30
30
30
60
60
60
60
F0
ENDCHAR

STARTCHAR Eth
ENCODING 208
SWIDTH 778 0
DWIDTH 11 0
BBX 10 10 0 0
BITMAP
7F00
3180
30C0
30C0
FEC0
60C0
60C0
6180
6300
FE00
ENDCHAR

STARTCHAR Ntilde
ENCODING 209
SWIDTH 778 0
DWIDTH 11 0
BBX 11 13 0 0
BITMAP
0680
0B00
0000
70E0
3840
3840
2C40
2E80
2680
4380
4380
4180
E080
ENDCHAR

STARTCHAR Ograve
ENCODING 210
SWIDTH 833 0
DWIDTH 11 0
BBX 10 14 0 0
BITMAP
0800
0C00
0200
0000
1F80
31C0
60C0
C0C0
C0C0
C0C0
C0C0
C180
E300
7E00
ENDCHAR

STARTCHAR Oacute
ENCODING 211
SWIDTH 833 0
DWIDTH 11 0
BBX 10 14 0 0
BITMAP
0200
0600
0800
0000
1F80
31C0
60C0
C0C0
C0C0
C0C0
C0C0
C180
E300
7E00
ENDCHAR

STARTCHAR Ocircumflex
ENCODING 212
SWIDTH 833 0
DWIDTH 11 0
BBX 10 14 0 0
BITMAP
0400
0E00
1100
0000
1F80
31C0
60C0
C0C0
C0C0
C0C0
C0C0
C180
E300
7E00
ENDCHAR

STARTCHAR Otilde
ENCODING 213
SWIDTH 833 0
DWIDTH 11 0
BBX 10 13 0 0
BITMAP
0D00
1600
0000
1F80
31C0
60C0
C0C0
C0C0
C0C0
C0C0
C180
E300
7E00
ENDCHAR

STARTCHAR Odieresis
ENCODING 214
SWIDTH 833 0
DWIDTH 11 0
BBX 10 13 0 0
BITMAP
0900
0900
0000
1F80
31C0
60C0
C0C0
C0C0
C0C0
C0C0
C180
E300
7E00
ENDCHAR

STARTCHAR multiply
ENCODING 215
SWIDTH 606 0
DWIDTH 8 0
BBX 7 7 0 1
BITMAP
82
44
28
10
28
44
82
ENDCHAR

STARTCHAR Oslash
ENCODING 216
SWIDTH 833 0
DWIDTH 11 0
BBX 10 10 0 0
BITMAP
1FC0
31C0
61C0
C2C0
C4C0
C8C0
D0C0
E180
E300
FE00
ENDCHAR

STARTCHAR Ugrave
ENCODING 217
SWIDTH 778 0
DWIDTH 11 0
BBX 11 14 0 0
BITMAP
0800
0C00
0200
0000
E1E0
60C0
60C0
60C0
60C0
C180
C180
C380
C580
79C0
ENDCHAR

STARTCHAR Uacute
ENCODING 218
SWIDTH 778 0
DWIDTH 11 0
BBX 11 14 0 0
BITMAP
0200
0600
0800
0000
E1E0
60C0
60C0
60C0
60C0
C180
C180
C380
C580
79C0
ENDCHAR

STARTCHAR Ucircumflex
ENCODING 219
SWIDTH 778 0
DWIDTH 11 0
BBX 11 14 0 0
BITMAP
0400
0E00
1100
0000
E1E0
60C0
60C0
60C0
60C0
C180
C180
C380
C580
79C0
ENDCHAR

STARTCHAR Udieresis
ENCODING 220
SWIDTH 778 0
DWIDTH 11 0
BBX 11 13 0 0
BITMAP
1200
1200
0000
E1E0
60C0
60C0
60C0
60C0
C180
C180
C380
C580
79C0
ENDCHAR

STARTCHAR Yacute
ENCODING 221
SWIDTH 611 0
DWIDTH 9 0
BBX 9 14 0 0
BITMAP
0400
0C00
1000
0000
E180
6300
3600
3400
1800
1800
1000
3000
3000
7800
ENDCHAR

STARTCHAR Thorn
ENCODING 222
SWIDTH 667 0
DWIDTH 9 0
BBX 9 10 0 0
BITMAP
7C00
3000
3F00
3180
3180
6180
6300
6E00
6000
F800
ENDCHAR

STARTCHAR germandbls
ENCODING 223
SWIDTH 556 0
DWIDTH 8 0
BBX 9 14 -2 -4
BITMAP
0700
0D80
0D80
3900
1A00
1B00
1B80
1980
3580
3700
3000
3000
6000
C000
ENDCHAR

STARTCHAR agrave
ENCODING 224
SWIDTH 556 0
DWIDTH 8 0
BBX 8 11 0 0
BITMAP
10
18
04
00
3E
66
66
CC
DC
ED
CE
ENDCHAR

STARTCHAR aacute
ENCODING 225
SWIDTH 556 0
DWIDTH 8 0
BBX 8 11 0 0
BITMAP
04
0C
10
00
3E
66
66
CC
DC
ED
CE
ENDCHAR

STARTCHAR acircumflex
ENCODING 226
SWIDTH 556 0
DWIDTH 8 0
BBX 8 11 0 0
BITMAP
08
1C
22
00
3E
66
66
CC
DC
ED
CE
ENDCHAR

STARTCHAR atilde
ENCODING 227
SWIDTH 556 0
DWIDTH 8 0
BBX 8 10 0 0
BITMAP
1A
2C
00
3E
66
66
CC
DC
ED
CE
ENDCHAR

STARTCHAR adieresis
ENCODING 228
SWIDTH 556 0
DWIDTH 8 0
BBX 8 10 0 0
BITMAP
12
12
00
3E
66
66
CC
DC
ED
CE
ENDCHAR

STARTCHAR aring
ENCODING 229
SWIDTH 556 0
DWIDTH 8 0
BBX 8 11 0 0
BITMAP
0C
12
0C
00
3E
66
66
CC
DC
ED
CE
ENDCHAR

STARTCHAR ae
ENCODING 230
SWIDTH 738 0
DWIDTH 10 0
BBX 10 7 0 0
BITMAP
3BC0
5EC0
0C80
7F00
CC00
DCC0
7780
ENDCHAR

STARTCHAR ccedilla
ENCODING 231
SWIDTH 444 0
DWIDTH 6 0
BBX 6 10 0 -3
BITMAP
3C
64
C0
C0
C0
CC
78
30
18
70
ENDCHAR

STARTCHAR egrave
ENCODING 232
SWIDTH 444 0
DWIDTH 6 0
BBX 6 11 0 0
BITMAP
20
30
08
00
3C
6C
C8
F0
C0
CC
78
ENDCHAR

STARTCHAR eacute
ENCODING 233
SWIDTH 444 0
DWIDTH 6 0
BBX 6 11 0 0
BITMAP
08
18
20
00
3C
6C
C8
F0
C0
CC
78
ENDCHAR

STARTCHAR ecircumflex
ENCODING 234
SWIDTH 444 0
DWIDTH 6 0
BBX 6 11 0 0
BITMAP
10
38
44
00
3C
6C
C8
F0
C0
CC
78
ENDCHAR

STARTCHAR edieresis
ENCODING 235
SWIDTH 444 0
DWIDTH 6 0
BBX 6 10 0 0
BITMAP
24
24
00
3C
6C
C8
F0
C0
CC
78
ENDCHAR

STARTCHAR igrave
ENCODING 236
SWIDTH 333 0
DWIDTH 5 0
BBX 4 11 0 0
BITMAP
40
60
10
00
60
E0
60
60
C0
D0
E0
ENDCHAR

STARTCHAR iacute
ENCODING 237
SWIDTH 333 0
DWIDTH 5 0
BBX 4 11 0 0
BITMAP
10
30
40
00
60
E0
60
60
C0
D0
E0
ENDCHAR

STARTCHAR icircumflex
ENCODING 238
SWIDTH 333 0
DWIDTH 5 0
BBX 5 11 0 0
BITMAP
20
70
88
00
60
E0
60
60
C0
D0
E0
ENDCHAR

STARTCHAR idieresis
ENCODING 239
SWIDTH 333 0
DWIDTH 5 0
BBX 4 10 0 0
BITMAP
90
90
00
60
E0
60
60
C0
D0
E0
ENDCHAR

STARTCHAR eth
ENCODING 240
SWIDTH 556 0
DWIDTH 8 0
BBX 7 10 0 0
BITMAP
6C
38
6C
3C
66
C6
C6
C6
CC
78
ENDCHAR

STARTCHAR ntilde
ENCODING 241
SWIDTH 556 0
DWIDTH 8 0
BBX 8 10 0 0
BITMAP
1A
2C
00
6E
F6
66
66
CC
CD
CE
ENDCHAR

STARTCHAR ograve
ENCODING 242
SWIDTH 556 0
DWIDTH 7 0
BBX 7 11 0 0
BITMAP
10
18
04
00
3C
66
66
C6
CC
CC
78
ENDCHAR

STARTCHAR oacute
ENCODING 243
SWIDTH 556 0
DWIDTH 7 0
BBX 7 11 0 0
BITMAP
04
0C
10
00
3C
66
66
C6
CC
CC
78
ENDCHAR

STARTCHAR ocircumflex
ENCODING 244
SWIDTH 556 0
DWIDTH 7 0
BBX 7 11 0 0
BITMAP
08
1C
22
00
3C
66
66
C6
CC
CC
78
ENDCHAR

STARTCHAR otilde
ENCODING 245
SWIDTH 556 0
DWIDTH 7 0
BBX 7 10 0 0
BITMAP
1A
2C
00
3C
66
66
C6
CC
CC
78
ENDCHAR

STARTCHAR odieresis
ENCODING 246
SWIDTH 556 0
DWIDTH 7 0
BBX 7 10 0 0
BITMAP
24
24
00
3C
66
66
C6
CC
CC
78
ENDCHAR

STARTCHAR divide
ENCODING 247
SWIDTH 606 0
DWIDTH 8 0
BBX 7 7 0 1
BITMAP
10
10
00
FE
00
10
10
ENDCHAR

STARTCHAR oslash
ENCODING 248
SWIDTH 556 0
DWIDTH 7 0
BBX 7 7 0 0
BITMAP
3E
66
6E
D6
EC
CC
F8
ENDCHAR

STARTCHAR ugrave
ENCODING 249
SWIDTH 556 0
DWIDTH 8 0
BBX 8 11 0 0
BITMAP
10
18
04
00
66
E6
66
CC
DC
ED
CE
ENDCHAR

STARTCHAR uacute
ENCODING 250
SWIDTH 556 0
DWIDTH 8 0
BBX 8 11 0 0
BITMAP
04
0C
10
00
66
E6
66
CC
DC
ED
CE
ENDCHAR

STARTCHAR ucircumflex
ENCODING 251
SWIDTH 556 0
DWIDTH 8 0
BBX 8 11 0 0
BITMAP
08
1C
22
00
66
E6
66
CC
DC
ED
CE
ENDCHAR

STARTCHAR udieresis
ENCODING 252
SWIDTH 556 0
DWIDTH 8 0
BBX 8 10 0 0
BITMAP
24
24
00
66
E6
66
CC
DC
ED
CE
ENDCHAR

STARTCHAR yacute
ENCODING 253
SWIDTH 556 0
DWIDTH 8 0
BBX 8 15 0 -4
BITMAP
01
03
04
00
33
73
33
36
66
7E
6C
0C
18
D8
F0
ENDCHAR

STARTCHAR thorn
ENCODING 254
SWIDTH 556 0
DWIDTH 8 0
BBX 8 14 0 -4
BITMAP
70
30
30
3E
37
63
63
66
6C
78
C0
C0
C0
C0
ENDCHAR

STARTCHAR ydieresis
ENCODING 255
SWIDTH 556 0
DWIDTH 8 0
BBX 8 14 0 -4
BITMAP
09
09
00
33
73
33
36
66
7E
6C
0C
18
D8
F0
ENDCHAR
ENDFONT
